<svg xmlns="http://www.w3.org/2000/svg" version="1.1" xmlns:xlink="http://www.w3.org/1999/xlink" xmlns:svgjs="http://svgjs.com/svgjs" width="1440" height="560" preserveAspectRatio="none" viewBox="0 0 1440 560"><g mask="url(&quot;#SvgjsMask1780&quot;)" fill="none"><rect width="1440" height="560" x="0" y="0" fill="url(#SvgjsRadialGradient1781)"></rect><path d="M1440 0L1434.06 0L1440 116.94z" fill="rgba(255, 255, 255, .1)"></path><path d="M1434.06 0L1440 116.94L1440 347.7L1317.61 0z" fill="rgba(255, 255, 255, .075)"></path><path d="M1317.61 0L1440 347.7L1440 440.2L772.8399999999999 0z" fill="rgba(255, 255, 255, .05)"></path><path d="M772.84 0L1440 440.2L1440 523.5699999999999L246.7800000000001 0z" fill="rgba(255, 255, 255, .025)"></path><path d="M0 560L174.19 560L0 326.51z" fill="rgba(0, 0, 0, .1)"></path><path d="M0 326.51L174.19 560L362.5 560L0 260.16999999999996z" fill="rgba(0, 0, 0, .075)"></path><path d="M0 260.16999999999996L362.5 560L875.26 560L0 204.53999999999996z" fill="rgba(0, 0, 0, .05)"></path><path d="M0 204.53999999999996L875.26 560L1165.6 560L0 109.84999999999997z" fill="rgba(0, 0, 0, .025)"></path></g><defs><mask id="SvgjsMask1780"><rect width="1440" height="560" fill="#ffffff"></rect></mask><radialGradient cx="0%" cy="100%" r="1545.06" gradientUnits="userSpaceOnUse" id="SvgjsRadialGradient1781"><stop stop-color="rgba(202, 76, 63, 1)" offset="0"></stop><stop stop-color="rgba(231, 76, 60, 1)" offset="0.45"></stop><stop stop-color="rgba(231, 76, 60, 1)" offset="1"></stop></radialGradient></defs></svg>