<svg xmlns="http://www.w3.org/2000/svg" width="125" height="135" viewBox="0 0 125 135">
    <defs>
        <linearGradient id="a" x1="50%" x2="50%" y1="33.984%" y2="100%">
            <stop offset="0%" stop-color="#3D68FB"/>
            <stop offset="100%" stop-color="#3D68FB" stop-opacity=".282"/>
        </linearGradient>
    </defs>
    <g fill="none" fill-rule="evenodd">
        <path fill="#FFF" d="M0 45h125v2H0z" opacity=".4"/>
        <path fill="#FFF" d="M12.128 76.36c-3.792 0-6.168-2.808-6.168-6.24 0-3.528 2.16-7.128 5.688-11.16h4.224c-1.704 1.824-3.696 4.104-4.992 6.312.528-.288 1.176-.456 1.992-.456 3.408 0 5.376 2.544 5.376 5.64 0 3.264-2.496 5.904-6.12 5.904zm2.568-5.904c0-1.68-1.056-2.832-2.568-2.832S9.56 68.776 9.56 70.456s1.056 2.832 2.568 2.832 2.568-1.152 2.568-2.832zm11.256 5.904c-4.152 0-6.192-3.72-6.192-8.88s2.04-8.88 6.192-8.88 6.192 3.72 6.192 8.88-2.04 8.88-6.192 8.88zm0-14.448c-1.776 0-2.64 1.704-2.64 5.568s.864 5.568 2.64 5.568c1.776 0 2.64-1.704 2.64-5.568s-.864-5.568-2.64-5.568zm23.496 2.856V58h3.408v18h-3.144v-1.536c-.792 1.152-2.208 1.824-3.984 1.824-3.648 0-5.784-2.928-5.784-6.576 0-3.648 2.136-6.576 5.784-6.576 1.776 0 3.072.768 3.72 1.632zm.096 4.944c0-2.04-1.2-3.576-3.096-3.576-1.896 0-3.096 1.536-3.096 3.576s1.2 3.576 3.096 3.576c1.896 0 3.096-1.536 3.096-3.576zm15.408-6.288h3.144V76h-3.144v-1.536c-.792 1.152-2.208 1.824-3.984 1.824-3.648 0-5.784-2.928-5.784-6.576 0-3.648 2.136-6.576 5.784-6.576 1.776 0 3.192.672 3.984 1.824v-1.536zm-.168 6.288c0-2.04-1.2-3.576-3.096-3.576-1.896 0-3.096 1.536-3.096 3.576s1.2 3.576 3.096 3.576c1.896 0 3.096-1.536 3.096-3.576zm7.728 11.28l2.112-5.208-4.968-12.36h3.624l3.024 8.4 3.048-8.4h3.552l-7.032 17.568h-3.36zm16.32-4.704c-3.936 0-5.28-2.016-5.448-4.368h3.456c.048.84.672 1.632 2.088 1.632 1.296 0 1.968-.456 1.968-1.152 0-2.112-6.984-.12-6.984-5.112 0-2.28 1.944-4.152 5.04-4.152 3.768 0 5.064 2.4 5.16 4.248h-3.288c-.072-.792-.672-1.512-1.896-1.512-1.104 0-1.728.528-1.728 1.224 0 2.112 6.96 0 6.96 5.16 0 2.256-1.92 4.032-5.328 4.032zM24.376 26.728v-2.904h1.584c1.704 0 2.472-.816 2.472-1.992 0-1.152-.744-2.088-2.304-2.088-1.704 0-2.4 1.224-2.4 2.4H20.32c0-3.096 2.328-5.544 5.808-5.544 3.504 0 5.688 2.04 5.688 5.016 0 1.512-.696 2.88-2.304 3.576 1.752.672 2.496 2.064 2.496 3.792 0 2.976-2.448 5.376-6.024 5.376-3.48 0-5.904-2.184-6.024-5.544h3.408c.072 1.368.912 2.4 2.616 2.4 1.56 0 2.544-.936 2.544-2.232 0-1.296-.744-2.256-2.616-2.256h-1.536zm15.576 7.632c-4.152 0-6.192-3.72-6.192-8.88s2.04-8.88 6.192-8.88 6.192 3.72 6.192 8.88-2.04 8.88-6.192 8.88zm0-14.448c-1.776 0-2.64 1.704-2.64 5.568s.864 5.568 2.64 5.568c1.776 0 2.64-1.704 2.64-5.568s-.864-5.568-2.64-5.568zm23.496 2.856V16h3.408v18h-3.144v-1.536c-.792 1.152-2.208 1.824-3.984 1.824-3.648 0-5.784-2.928-5.784-6.576 0-3.648 2.136-6.576 5.784-6.576 1.776 0 3.072.768 3.72 1.632zm.096 4.944c0-2.04-1.2-3.576-3.096-3.576-1.896 0-3.096 1.536-3.096 3.576s1.2 3.576 3.096 3.576c1.896 0 3.096-1.536 3.096-3.576zm15.408-6.288h3.144V34h-3.144v-1.536c-.792 1.152-2.208 1.824-3.984 1.824-3.648 0-5.784-2.928-5.784-6.576 0-3.648 2.136-6.576 5.784-6.576 1.776 0 3.192.672 3.984 1.824v-1.536zm-.168 6.288c0-2.04-1.2-3.576-3.096-3.576-1.896 0-3.096 1.536-3.096 3.576s1.2 3.576 3.096 3.576c1.896 0 3.096-1.536 3.096-3.576zm7.728 11.28l2.112-5.208-4.968-12.36h3.624l3.024 8.4 3.048-8.4h3.552l-7.032 17.568h-3.36zm16.32-4.704c-3.936 0-5.28-2.016-5.448-4.368h3.456c.048.84.672 1.632 2.088 1.632 1.296 0 1.968-.456 1.968-1.152 0-2.112-6.984-.12-6.984-5.112 0-2.28 1.944-4.152 5.04-4.152 3.768 0 5.064 2.4 5.16 4.248h-3.288c-.072-.792-.672-1.512-1.896-1.512-1.104 0-1.728.528-1.728 1.224 0 2.112 6.96 0 6.96 5.16 0 2.256-1.92 4.032-5.328 4.032z" opacity=".9"/>
        <path fill="url(#a)" d="M0 0h125v40H0z"/>
        <path fill="#FFF" d="M25.84 100.6c3.792 0 6.168 2.808 6.168 6.24 0 3.528-2.16 7.128-5.688 11.16h-4.224c1.68-1.824 3.672-4.104 4.992-6.288-.552.288-1.2.432-1.992.432-3.408 0-5.376-2.544-5.376-5.64 0-3.264 2.496-5.904 6.12-5.904zm-2.568 5.904c0 1.68 1.056 2.832 2.568 2.832s2.568-1.152 2.568-2.832-1.056-2.832-2.568-2.832-2.568 1.152-2.568 2.832zm16.68 11.856c-4.152 0-6.192-3.72-6.192-8.88s2.04-8.88 6.192-8.88 6.192 3.72 6.192 8.88-2.04 8.88-6.192 8.88zm0-14.448c-1.776 0-2.64 1.704-2.64 5.568s.864 5.568 2.64 5.568c1.776 0 2.64-1.704 2.64-5.568s-.864-5.568-2.64-5.568zm23.496 2.856V100h3.408v18h-3.144v-1.536c-.792 1.152-2.208 1.824-3.984 1.824-3.648 0-5.784-2.928-5.784-6.576 0-3.648 2.136-6.576 5.784-6.576 1.776 0 3.072.768 3.72 1.632zm.096 4.944c0-2.04-1.2-3.576-3.096-3.576-1.896 0-3.096 1.536-3.096 3.576s1.2 3.576 3.096 3.576c1.896 0 3.096-1.536 3.096-3.576zm15.408-6.288h3.144V118h-3.144v-1.536c-.792 1.152-2.208 1.824-3.984 1.824-3.648 0-5.784-2.928-5.784-6.576 0-3.648 2.136-6.576 5.784-6.576 1.776 0 3.192.672 3.984 1.824v-1.536zm-.168 6.288c0-2.04-1.2-3.576-3.096-3.576-1.896 0-3.096 1.536-3.096 3.576s1.2 3.576 3.096 3.576c1.896 0 3.096-1.536 3.096-3.576zm7.728 11.28l2.112-5.208-4.968-12.36h3.624l3.024 8.4 3.048-8.4h3.552l-7.032 17.568h-3.36zm16.32-4.704c-3.936 0-5.28-2.016-5.448-4.368h3.456c.048.84.672 1.632 2.088 1.632 1.296 0 1.968-.456 1.968-1.152 0-2.112-6.984-.12-6.984-5.112 0-2.28 1.944-4.152 5.04-4.152 3.768 0 5.064 2.4 5.16 4.248h-3.288c-.072-.792-.672-1.512-1.896-1.512-1.104 0-1.728.528-1.728 1.224 0 2.112 6.96 0 6.96 5.16 0 2.256-1.92 4.032-5.328 4.032z" opacity=".9"/>
        <path fill="url(#a)" d="M0 95h125v40H0z" transform="matrix(1 0 0 -1 0 230)"/>
        <path fill="#FFF" d="M116.009 73.186l-3.918-6.268a.6.6 0 0 1 .51-.918h7.834a.6.6 0 0 1 .509.918l-3.918 6.268a.6.6 0 0 1-1.017 0z" opacity=".8"/>
        <path fill="#FFF" d="M0 88h125v2H0z" opacity=".4"/>
    </g>
</svg>
