<svg xmlns="http://www.w3.org/2000/svg" xmlns:xlink="http://www.w3.org/1999/xlink" width="74" height="90" viewBox="0 0 74 90">
    <defs>
        <path id="a" d="M42.306 46.81c1.089.043 2.223-.714 3.113-1.69.475-.51 1.855.19 1.533.874C45.909 48.135 43.824 50 41.447 50c-2.683-.015-4.155-1.675-4.155-4.152V39.89c0-.64-.337-1.078-1.043-1.078-3.02 0-5.243 7.313-5.458 9.79-.061.83-1.319 1.02-1.993 1.004-.598-.014-1.625-.203-1.702-.917 0-5.04 0-8.158.015-13.213-1.81-.087-3.863-.582-5.151-1.879-1.564-1.573-1.227-3.889 1.088-4.458.2-.057.414.044.49.233.614 1.37 1.948 3.671 3.604 3.905 0-.67 0-1.952-.016-2.622-.045-8.726 12.298-8.479 12.067-1.544-.138 4.078-4.814 5.87-8.187 6.365v6.38c1.134-2.912 2.668-6.453 6.531-6.307 2.224.146 3.404 1.675 3.604 3.584.076.64.076 1.296.06 1.952v3.423c0 .816-.122 2.258 1.105 2.301zm-10.16-20.09c-.802.809-1.064 2.177-1.113 3.21-.032.92-.016 2.135-.033 3.07 1.881-.419 3.55-1.647 4.45-3.14.424-.684.67-1.66.49-2.457-.376-1.632-2.666-1.814-3.795-.683zM47 28v-4h3v4h4v3h-4v4h-3v-4h-4v-3h4z"/>
    </defs>
    <g fill="#FFF" fill-rule="evenodd">
        <path d="M68 74l-2.136-2H69a3 3 0 0 0 3-3V5a3 3 0 0 0-3-3H5a3 3 0 0 0-3 3v64a3 3 0 0 0 3 3h41v2H4a4 4 0 0 1-4-4V4a4 4 0 0 1 4-4h66a4 4 0 0 1 4 4v66a4 4 0 0 1-4 4h-2z" opacity=".4"/>
        <path fill-opacity=".604" d="M66.44 77.091L51.03 61.151a.6.6 0 0 0-1.031.417v22.814a.6.6 0 0 0 1.045.403l5.294-5.856 4.314 10.32a1.203 1.203 0 0 0 2.23-.9l-4.314-10.32 7.433.08a.6.6 0 0 0 .438-1.018z"/>
        <use xlink:href="#a"/>
    </g>
</svg>
