<svg xmlns="http://www.w3.org/2000/svg" width="111" height="83" viewBox="0 0 111 83">
    <g fill="none" fill-rule="evenodd">
        <path fill="none" stroke="#FFF" stroke-width="2" d="M6 24h76a4 4 0 0 1 4 4v50a4 4 0 0 1-4 4H6a4 4 0 0 1-4-4V28a4 4 0 0 1 4-4z"/>
        <path stroke="#FFF" stroke-linecap="square" stroke-width="2" d="M2 36l35.643 25.766a10 10 0 0 0 11.715.002L85.024 36"/>
        <g transform="translate(67 4)">
            <circle cx="20" cy="20" r="22" fill="#FFF" stroke="#6083FB" stroke-width="4"/>
            <path fill="#6083FB" d="M14.94 29.998V27.5a4.987 4.987 0 0 1-2.014-.558 5.747 5.747 0 0 1-1.546-1.12 5.038 5.038 0 0 1-.964-1.404c-.23-.505-.368-1-.416-1.482l2.95-.68c.031.363.122.706.273 1.03.15.325.36.615.63.872s.603.46 1 .611c.396.151.871.227 1.426.227.777 0 1.38-.159 1.808-.476.428-.317.642-.724.642-1.222a1.34 1.34 0 0 0-.44-1.007c-.293-.28-.741-.48-1.344-.6l-2.188-.453c-1.284-.272-2.3-.777-3.044-1.517-.746-.74-1.118-1.652-1.118-2.739 0-.603.115-1.162.345-1.675a4.36 4.36 0 0 1 .95-1.358c.405-.392.881-.72 1.428-.984.547-.265 1-.393 1.622-.465V10h3v2.5c.55.18.849.317 1.348.589.5.272.92.581 1.26.928.342.347.611.72.81 1.12.198.4.336.79.416 1.166l-2.926.793a2.862 2.862 0 0 0-.202-.657 2.264 2.264 0 0 0-.476-.69 2.56 2.56 0 0 0-.808-.544c-.326-.143-.734-.215-1.225-.215-.762 0-1.344.178-1.749.532-.404.355-.606.766-.606 1.234 0 .347.135.657.404.928.27.272.682.468 1.237.589l2.165.475c1.506.317 2.608.868 3.306 1.652.697.785 1.046 1.69 1.046 2.717a4.1 4.1 0 0 1-.285 1.516c-.19.483-.476.925-.856 1.325-.381.4-.845.739-1.392 1.018-.547.28-.994.427-1.467.524v2.498h-3zM29 19v-7h-3v7h-3l4.5 5.238L32 19z"/>
        </g>
    </g>
</svg>
