<?xml version="1.0" encoding="iso-8859-1"?>
<!-- Generator: Adobe Illustrator 19.0.0, SVG Export Plug-In . SVG Version: 6.00 Build 0)  -->
<svg fill="#ffffff" xmlns="http://www.w3.org/2000/svg" xmlns:xlink="http://www.w3.org/1999/xlink" version="1.1" id="Layer_1" x="0px" y="0px" viewBox="0 0 512.003 512.003" style="enable-background:new 0 0 512.003 512.003;" xml:space="preserve" width="512" height="512">
<g id="XMLID_1341_">
	<g id="XMLID_213_">
		<path id="XMLID_214_" d="M478.179,271.441c-5.826,0-11.312,1.48-16.102,4.085c-4.901-12.646-17.188-21.64-31.543-21.64    c-9.284,0-17.705,3.762-23.823,9.839c-6.118-6.077-14.538-9.839-23.822-9.839c-4.923,0-9.599,1.066-13.822,2.965v-28.899    c0.308,0.029,0.62,0.047,0.936,0.047h83c17.094,0,31-13.906,31-31v-43.001c0-5.522-4.478-10-10-10s-10,4.478-10,10V197    c0,6.065-4.935,11-11,11h-83c-0.316,0-0.627,0.019-0.936,0.047v-21.414c0-18.649-15.173-33.822-33.823-33.822    c-18.649,0-33.822,15.173-33.822,33.822V208h-14.419c-6.065,0-11-4.935-11-11V31c0-6.065,4.935-11,11-11h166    c6.065,0,11,4.935,11,11v43c0,5.522,4.478,10,10,10s10-4.478,10-10V31c0-17.094-13.906-31-31-31h-166c-17.094,0-31,13.906-31,31    v166c0,17.094,13.906,31,31,31h14.419v84.818l-34.462,50.519c-11.563,16.949-13.331,39.018-4.618,57.592l40.026,85.318    c1.702,3.627,5.303,5.755,9.061,5.755c1.422,0,2.867-0.305,4.24-0.948c5-2.346,7.151-8.301,4.807-13.301l-40.026-85.318    c-5.724-12.2-4.562-26.695,3.032-37.827l17.94-26.299v18.906c0,5.522,4.478,10,10,10s10-4.478,10-10V186.634    c0-7.622,6.2-13.822,13.822-13.822s13.823,6.2,13.823,13.822v147.707c0,5.522,4.478,10,10,10s10-4.478,10-10v-46.632    c0-7.622,6.2-13.822,13.822-13.822s13.822,6.2,13.822,13.822v46.632c0,5.522,4.478,10,10,10s10-4.478,10-10v-46.632    c0-7.622,6.201-13.822,13.823-13.822s13.822,6.2,13.822,13.822v46.632c0,5.522,4.478,10,10,10s10-4.478,10-10v-29.077    c0-7.622,6.201-13.822,13.823-13.822s13.822,6.2,13.822,13.822v83.6c0,22.269-3.378,44.332-10.041,65.578l-13.976,44.566    c-1.652,5.27,1.28,10.882,6.55,12.534c0.996,0.313,2.004,0.461,2.995,0.461c4.254-0.001,8.199-2.737,9.539-7.011l13.976-44.566    c7.271-23.186,10.957-47.263,10.957-71.563v-83.6C512.001,286.614,496.829,271.441,478.179,271.441z"/>
		<path id="XMLID_877_" d="M197.001,0h-166c-17.094,0-31,13.906-31,31v166c0,17.094,13.906,31,31,31h43c5.522,0,10-4.478,10-10    s-4.478-10-10-10h-43c-6.065,0-11-4.935-11-11V31c0-6.065,4.935-11,11-11h166c6.065,0,11,4.935,11,11v166c0,6.065-4.935,11-11,11    h-43c-5.522,0-10,4.478-10,10s4.478,10,10,10h43c17.094,0,31-13.906,31-31V31C228.001,13.906,214.095,0,197.001,0z"/>
		<path id="XMLID_879_" d="M156.193,156.19c3.905-3.905,3.905-10.237,0-14.143L128.144,114l28.049-28.048    c3.905-3.905,3.905-10.237,0-14.143c-3.905-3.903-10.235-3.905-14.143,0l-28.049,28.048L85.953,71.809    c-3.906-3.904-10.236-3.904-14.143,0c-3.905,3.905-3.905,10.237,0,14.143L99.859,114L71.81,142.048    c-3.905,3.905-3.905,10.237,0,14.143c1.953,1.952,4.512,2.929,7.071,2.929c2.559,0,5.118-0.977,7.071-2.929l28.049-28.048    l28.049,28.048c1.953,1.952,4.512,2.929,7.071,2.929S154.24,158.143,156.193,156.19z"/>
		<path id="XMLID_938_" d="M414.436,65.249l-49.833,49.833L343.681,94.16c-3.906-3.904-10.236-3.904-14.143,0    c-3.905,3.905-3.905,10.237,0,14.143l27.993,27.993c1.953,1.952,4.512,2.929,7.071,2.929s5.118-0.977,7.071-2.929l56.904-56.904    c3.905-3.905,3.905-10.237,0-14.143C424.672,61.345,418.342,61.345,414.436,65.249z"/>
		<path id="XMLID_940_" d="M114.001,207.996c-2.63,0-5.21,1.07-7.07,2.931c-1.86,1.859-2.93,4.439-2.93,7.069s1.069,5.21,2.93,7.07    c1.86,1.87,4.44,2.93,7.07,2.93s5.21-1.06,7.069-2.93c1.86-1.86,2.931-4.44,2.931-7.07s-1.07-5.21-2.931-7.069    C119.211,209.066,116.631,207.996,114.001,207.996z"/>
		<path id="XMLID_1012_" d="M474.001,103.996c-2.63,0-5.21,1.07-7.07,2.931c-1.86,1.859-2.93,4.439-2.93,7.069    c0,2.641,1.069,5.21,2.93,7.07c1.86,1.87,4.44,2.93,7.07,2.93s5.21-1.06,7.069-2.93c1.86-1.86,2.931-4.44,2.931-7.07    s-1.07-5.21-2.931-7.069C479.211,105.066,476.631,103.996,474.001,103.996z"/>
	</g>
</g>















</svg>
